G04 EAGLE Gerber RS-274X export*
G75*
%MOMM*%
%FSLAX34Y34*%
%LPD*%
%INSoldermask Top*%
%IPPOS*%
%AMOC8*
5,1,8,0,0,1.08239X$1,22.5*%
G01*
%ADD10C,3.003200*%
%ADD11C,1.879600*%
%ADD12C,3.505200*%
%ADD13R,1.503200X1.703200*%
%ADD14R,1.503200X3.503200*%
%ADD15R,1.203200X0.503200*%
%ADD16R,1.053200X0.473200*%
%ADD17R,0.473200X1.053200*%
%ADD18R,1.703200X1.503200*%
%ADD19C,2.082800*%
%ADD20R,1.473200X0.838200*%
%ADD21C,2.082800*%
%ADD22R,1.603200X1.203200*%
%ADD23R,11.003200X10.613200*%
%ADD24R,1.270000X2.362200*%
%ADD25R,1.403200X1.603200*%
%ADD26C,1.993900*%
%ADD27C,0.959600*%


D10*
X40000Y40000D03*
X900000Y40000D03*
X40000Y610000D03*
X900000Y610000D03*
D11*
X444600Y146782D02*
X444600Y130018D01*
X470000Y130018D02*
X470000Y146782D01*
X495400Y146782D02*
X495400Y130018D01*
D12*
X470000Y288260D03*
D13*
X440500Y100000D03*
X459500Y100000D03*
X440500Y80000D03*
X459500Y80000D03*
X440500Y60000D03*
X459500Y60000D03*
X509500Y100000D03*
X490500Y100000D03*
X509500Y80000D03*
X490500Y80000D03*
X509500Y60000D03*
X490500Y60000D03*
D14*
X350000Y28750D03*
X350000Y91250D03*
X250000Y28750D03*
X250000Y91250D03*
X600000Y28750D03*
X600000Y91250D03*
X700000Y28750D03*
X700000Y91250D03*
D15*
X188000Y422250D03*
X188000Y415750D03*
X188000Y409250D03*
X188000Y402750D03*
X188000Y396250D03*
X188000Y389750D03*
X188000Y383250D03*
X188000Y376750D03*
X188000Y370250D03*
X188000Y363750D03*
X188000Y357250D03*
X188000Y350750D03*
X188000Y344250D03*
X188000Y337750D03*
X252000Y337750D03*
X252000Y344250D03*
X252000Y350750D03*
X252000Y357250D03*
X252000Y363750D03*
X252000Y370250D03*
X252000Y376750D03*
X252000Y383250D03*
X252000Y389750D03*
X252000Y396250D03*
X252000Y402750D03*
X252000Y409250D03*
X252000Y415750D03*
X252000Y422250D03*
D16*
X316838Y541526D03*
D17*
X324638Y539826D03*
X328938Y539826D03*
X333238Y539826D03*
X337538Y539826D03*
D16*
X345338Y541526D03*
X345338Y545826D03*
X345338Y550126D03*
X345338Y554426D03*
X345338Y558726D03*
X345338Y563026D03*
X345338Y567326D03*
X345338Y571626D03*
D17*
X337538Y573326D03*
X333238Y573326D03*
X328938Y573326D03*
X324638Y573326D03*
D16*
X316838Y571626D03*
X316838Y567326D03*
X316838Y563026D03*
X316838Y558726D03*
X316838Y554426D03*
X316838Y550126D03*
X316838Y545826D03*
D13*
X267684Y529624D03*
X286684Y529624D03*
D18*
X298840Y609988D03*
X298840Y590988D03*
X277184Y579980D03*
X277184Y560980D03*
X387168Y537300D03*
X387168Y556300D03*
D19*
X70000Y490000D03*
X70000Y515400D03*
X70000Y540800D03*
X70000Y400000D03*
X70000Y425400D03*
X70000Y450800D03*
X70000Y300000D03*
X70000Y325400D03*
X70000Y350800D03*
X70000Y210000D03*
X70000Y235400D03*
X70000Y260800D03*
D20*
X120000Y494064D03*
X120000Y485936D03*
D18*
X230856Y452044D03*
X230856Y471044D03*
X203048Y452044D03*
X203048Y471044D03*
D21*
X860602Y440000D02*
X879398Y440000D01*
X879398Y465400D02*
X860602Y465400D01*
X860602Y490800D02*
X879398Y490800D01*
X879398Y516200D02*
X860602Y516200D01*
D22*
X329000Y420000D03*
X351000Y429500D03*
X351000Y410500D03*
X329000Y380000D03*
X351000Y389500D03*
X351000Y370500D03*
D18*
X390000Y379500D03*
X390000Y360500D03*
X390000Y429500D03*
X390000Y410500D03*
D13*
X329500Y450000D03*
X310500Y450000D03*
X329500Y350000D03*
X310500Y350000D03*
D23*
X686816Y267208D03*
D24*
X686816Y183896D03*
X661416Y183896D03*
X712216Y183896D03*
D13*
X652932Y160528D03*
X671932Y160528D03*
X652932Y136144D03*
X671932Y136144D03*
X720700Y136144D03*
X701700Y136144D03*
X720700Y160528D03*
X701700Y160528D03*
D25*
X813576Y631952D03*
X783576Y631952D03*
D13*
X812140Y599440D03*
X793140Y599440D03*
D26*
X75502Y163176D02*
X57595Y163176D01*
X57595Y113176D02*
X75502Y113176D01*
X887667Y149752D02*
X905574Y149752D01*
X905574Y199752D02*
X887667Y199752D01*
D27*
X682752Y134112D03*
X560832Y130048D03*
X603504Y130048D03*
X406400Y60960D03*
X538480Y62992D03*
X599440Y60960D03*
X298704Y56896D03*
X201168Y58928D03*
X701040Y60960D03*
X95504Y191008D03*
X136144Y241808D03*
X223520Y158496D03*
X138176Y325120D03*
X276352Y188976D03*
X213360Y280416D03*
X343408Y268224D03*
X355600Y140208D03*
X554736Y272288D03*
X597408Y270256D03*
X400304Y201168D03*
X225552Y495808D03*
X282448Y495808D03*
X382016Y505968D03*
X97536Y629920D03*
X497840Y633984D03*
X725424Y636016D03*
X270256Y631952D03*
X757936Y508000D03*
X455168Y508000D03*
X459232Y379984D03*
X735584Y379984D03*
X347472Y335280D03*
X286512Y363728D03*
X172720Y508000D03*
X134112Y512064D03*
X579120Y377952D03*
X581152Y510032D03*
X668528Y508000D03*
X664464Y384048D03*
X824992Y28448D03*
X916432Y117856D03*
X885952Y296672D03*
X816864Y237744D03*
X873760Y386080D03*
X593344Y201168D03*
X552704Y201168D03*
X692912Y117856D03*
X469392Y16256D03*
X406400Y16256D03*
X538480Y16256D03*
X256032Y319024D03*
X154432Y58928D03*
X111760Y81280D03*
X113792Y128016D03*
X355600Y56896D03*
X776224Y67056D03*
X851408Y144272D03*
X755904Y160528D03*
X926592Y258064D03*
X814832Y327152D03*
X219456Y386080D03*
X168656Y288544D03*
X288544Y262128D03*
X349504Y203200D03*
X558800Y459232D03*
X457200Y459232D03*
X711200Y459232D03*
X229616Y113792D03*
X146304Y125984D03*
X422656Y150368D03*
X520192Y152400D03*
X457200Y40640D03*
X491744Y40640D03*
X457200Y26416D03*
X491744Y26416D03*
X314960Y512064D03*
X345440Y481584D03*
X274320Y603504D03*
X331216Y587248D03*
X349504Y530352D03*
X377952Y575056D03*
X274320Y546608D03*
X333248Y562864D03*
X292608Y564896D03*
X256032Y575056D03*
X172720Y585216D03*
X28448Y95504D03*
X28448Y128016D03*
X808736Y428752D03*
X798576Y536448D03*
X766064Y564896D03*
X762000Y205232D03*
X292608Y393192D03*
X289560Y438912D03*
X272288Y394208D03*
X268224Y457200D03*
X155448Y399288D03*
X144780Y385572D03*
X143256Y359664D03*
X158496Y359664D03*
X304800Y552704D03*
X361696Y552704D03*
X304800Y534416D03*
X396240Y449072D03*
X367792Y442976D03*
X367792Y400304D03*
M02*
