G04 EAGLE Gerber RS-274X export*
G75*
%MOMM*%
%FSLAX34Y34*%
%LPD*%
%INSoldermask Bottom*%
%IPPOS*%
%AMOC8*
5,1,8,0,0,1.08239X$1,22.5*%
G01*
%ADD10C,3.003200*%
%ADD11C,1.879600*%
%ADD12C,3.505200*%
%ADD13C,2.082800*%
%ADD14C,2.082800*%
%ADD15C,1.993900*%
%ADD16C,0.959600*%


D10*
X40000Y40000D03*
X900000Y40000D03*
X40000Y610000D03*
X900000Y610000D03*
D11*
X444600Y146782D02*
X444600Y130018D01*
X470000Y130018D02*
X470000Y146782D01*
X495400Y146782D02*
X495400Y130018D01*
D12*
X470000Y288260D03*
D13*
X70000Y490000D03*
X70000Y515400D03*
X70000Y540800D03*
X70000Y400000D03*
X70000Y425400D03*
X70000Y450800D03*
X70000Y300000D03*
X70000Y325400D03*
X70000Y350800D03*
X70000Y210000D03*
X70000Y235400D03*
X70000Y260800D03*
D14*
X860602Y440000D02*
X879398Y440000D01*
X879398Y465400D02*
X860602Y465400D01*
X860602Y490800D02*
X879398Y490800D01*
X879398Y516200D02*
X860602Y516200D01*
D15*
X75502Y163176D02*
X57595Y163176D01*
X57595Y113176D02*
X75502Y113176D01*
X887667Y149752D02*
X905574Y149752D01*
X905574Y199752D02*
X887667Y199752D01*
D16*
X682752Y134112D03*
X560832Y130048D03*
X603504Y130048D03*
X406400Y60960D03*
X538480Y62992D03*
X599440Y60960D03*
X298704Y56896D03*
X201168Y58928D03*
X701040Y60960D03*
X95504Y191008D03*
X136144Y241808D03*
X223520Y158496D03*
X138176Y325120D03*
X276352Y188976D03*
X213360Y280416D03*
X343408Y268224D03*
X355600Y140208D03*
X554736Y272288D03*
X597408Y270256D03*
X400304Y201168D03*
X225552Y495808D03*
X282448Y495808D03*
X382016Y505968D03*
X97536Y629920D03*
X497840Y633984D03*
X725424Y636016D03*
X270256Y631952D03*
X757936Y508000D03*
X455168Y508000D03*
X459232Y379984D03*
X735584Y379984D03*
X347472Y335280D03*
X286512Y363728D03*
X172720Y508000D03*
X134112Y512064D03*
X579120Y377952D03*
X581152Y510032D03*
X668528Y508000D03*
X664464Y384048D03*
X824992Y28448D03*
X916432Y117856D03*
X885952Y296672D03*
X816864Y237744D03*
X873760Y386080D03*
X593344Y201168D03*
X552704Y201168D03*
X692912Y117856D03*
X469392Y16256D03*
X406400Y16256D03*
X538480Y16256D03*
X256032Y319024D03*
X154432Y58928D03*
X111760Y81280D03*
X113792Y128016D03*
X355600Y56896D03*
X776224Y67056D03*
X851408Y144272D03*
X755904Y160528D03*
X926592Y258064D03*
X814832Y327152D03*
X219456Y386080D03*
X168656Y288544D03*
X288544Y262128D03*
X349504Y203200D03*
X558800Y459232D03*
X457200Y459232D03*
X711200Y459232D03*
X229616Y113792D03*
X146304Y125984D03*
X422656Y150368D03*
X520192Y152400D03*
X457200Y40640D03*
X491744Y40640D03*
X457200Y26416D03*
X491744Y26416D03*
X314960Y512064D03*
X345440Y481584D03*
X274320Y603504D03*
X331216Y587248D03*
X349504Y530352D03*
X377952Y575056D03*
X274320Y546608D03*
X333248Y562864D03*
X292608Y564896D03*
X256032Y575056D03*
X172720Y585216D03*
X28448Y95504D03*
X28448Y128016D03*
X808736Y428752D03*
X798576Y536448D03*
X766064Y564896D03*
X762000Y205232D03*
X292608Y393192D03*
X289560Y438912D03*
X272288Y394208D03*
X268224Y457200D03*
X155448Y399288D03*
X144780Y385572D03*
X143256Y359664D03*
X158496Y359664D03*
X304800Y552704D03*
X361696Y552704D03*
X304800Y534416D03*
X396240Y449072D03*
X367792Y442976D03*
X367792Y400304D03*
M02*
