G04 EAGLE Gerber RS-274X export*
G75*
%MOMM*%
%FSLAX34Y34*%
%LPD*%
%INSolderpaste Top*%
%IPPOS*%
%AMOC8*
5,1,8,0,0,1.08239X$1,22.5*%
G01*
%ADD10R,1.300000X1.500000*%
%ADD11R,1.300000X3.300000*%
%ADD12R,1.000000X0.300000*%
%ADD13R,0.850000X0.270000*%
%ADD14R,0.270000X0.850000*%
%ADD15R,1.500000X1.300000*%
%ADD16R,1.400000X1.000000*%
%ADD17R,10.800000X10.410000*%
%ADD18R,1.066800X2.159000*%
%ADD19R,1.200000X1.400000*%


D10*
X440500Y100000D03*
X459500Y100000D03*
X440500Y80000D03*
X459500Y80000D03*
X440500Y60000D03*
X459500Y60000D03*
X509500Y100000D03*
X490500Y100000D03*
X509500Y80000D03*
X490500Y80000D03*
X509500Y60000D03*
X490500Y60000D03*
D11*
X350000Y28750D03*
X350000Y91250D03*
X250000Y28750D03*
X250000Y91250D03*
X600000Y28750D03*
X600000Y91250D03*
X700000Y28750D03*
X700000Y91250D03*
D12*
X188000Y422250D03*
X188000Y415750D03*
X188000Y409250D03*
X188000Y402750D03*
X188000Y396250D03*
X188000Y389750D03*
X188000Y383250D03*
X188000Y376750D03*
X188000Y370250D03*
X188000Y363750D03*
X188000Y357250D03*
X188000Y350750D03*
X188000Y344250D03*
X188000Y337750D03*
X252000Y337750D03*
X252000Y344250D03*
X252000Y350750D03*
X252000Y357250D03*
X252000Y363750D03*
X252000Y370250D03*
X252000Y376750D03*
X252000Y383250D03*
X252000Y389750D03*
X252000Y396250D03*
X252000Y402750D03*
X252000Y409250D03*
X252000Y415750D03*
X252000Y422250D03*
D13*
X316838Y541526D03*
D14*
X324638Y539826D03*
X328938Y539826D03*
X333238Y539826D03*
X337538Y539826D03*
D13*
X345338Y541526D03*
X345338Y545826D03*
X345338Y550126D03*
X345338Y554426D03*
X345338Y558726D03*
X345338Y563026D03*
X345338Y567326D03*
X345338Y571626D03*
D14*
X337538Y573326D03*
X333238Y573326D03*
X328938Y573326D03*
X324638Y573326D03*
D13*
X316838Y571626D03*
X316838Y567326D03*
X316838Y563026D03*
X316838Y558726D03*
X316838Y554426D03*
X316838Y550126D03*
X316838Y545826D03*
D10*
X267684Y529624D03*
X286684Y529624D03*
D15*
X298840Y609988D03*
X298840Y590988D03*
X277184Y579980D03*
X277184Y560980D03*
X387168Y537300D03*
X387168Y556300D03*
X230856Y452044D03*
X230856Y471044D03*
X203048Y452044D03*
X203048Y471044D03*
D16*
X329000Y420000D03*
X351000Y429500D03*
X351000Y410500D03*
X329000Y380000D03*
X351000Y389500D03*
X351000Y370500D03*
D15*
X390000Y379500D03*
X390000Y360500D03*
X390000Y429500D03*
X390000Y410500D03*
D10*
X329500Y450000D03*
X310500Y450000D03*
X329500Y350000D03*
X310500Y350000D03*
D17*
X686816Y267208D03*
D18*
X686816Y183896D03*
X661416Y183896D03*
X712216Y183896D03*
D10*
X652932Y160528D03*
X671932Y160528D03*
X652932Y136144D03*
X671932Y136144D03*
X720700Y136144D03*
X701700Y136144D03*
X720700Y160528D03*
X701700Y160528D03*
D19*
X813576Y631952D03*
X783576Y631952D03*
D10*
X812140Y599440D03*
X793140Y599440D03*
M02*
