M48
;GenerationSoftware,Autodesk,EAGLE,9.5.2*%
;CreationDate,2020-11-12T14:10:17Z*%
FMAT,2
ICI,OFF
METRIC,TZ,000.000
T6C0.350
T5C1.016
T4C1.118
T3C1.194
T2C2.800
T1C3.302
%
G90
M71
T1
X47000Y28826
T2
X90000Y61000
X4000Y61000
X90000Y4000
X4000Y4000
T3
X89662Y19975
X89662Y14975
X6655Y11318
X6655Y16318
T4
X87000Y51620
X87000Y49080
X87000Y46540
X87000Y44000
X49540Y13840
X47000Y13840
X44460Y13840
T5
X7000Y26080
X7000Y23540
X7000Y21000
X7000Y35080
X7000Y32540
X7000Y30000
X7000Y45080
X7000Y42540
X7000Y40000
X7000Y54080
X7000Y51540
X7000Y49000
T6
X45517Y50800
X45923Y37998
X73558Y37998
X34747Y33528
X28651Y36373
X17272Y50800
X13411Y51206
X57912Y37795
X58115Y51003
X66853Y50800
X66446Y38405
X82499Y2845
X91643Y11786
X88595Y29667
X81686Y23774
X87376Y38608
X59334Y20117
X55270Y20117
X69291Y11786
X46939Y1626
X40640Y1626
X53848Y1626
X25603Y31902
X15443Y5893
X11176Y8128
X11379Y12802
X35560Y5690
X77622Y6706
X85141Y14427
X75590Y16053
X92659Y25806
X81483Y32715
X21946Y38608
X16866Y28854
X28854Y26213
X34950Y20320
X55880Y45923
X45720Y45923
X71120Y45923
X68275Y13411
X14630Y12598
X42266Y15037
X52019Y15240
X45720Y4064
X49174Y4064
X45720Y2642
X49174Y2642
X31496Y51206
X34544Y48158
X27432Y60350
X33122Y58725
X34950Y53035
X37795Y57506
X27432Y54661
X33325Y56286
X29261Y56490
X25603Y57506
X17272Y58522
X2845Y9550
X2845Y12802
X80874Y42875
X79858Y53645
X76606Y56490
X76200Y20523
X29261Y39319
X28956Y43891
X27229Y39421
X26822Y45720
X15545Y39929
X14478Y38557
X14326Y35966
X15850Y35966
X30480Y55270
X36170Y55270
X30480Y53442
X39624Y44907
X36779Y44298
X36779Y40030
X75794Y50800
X27026Y63195
X72542Y63602
X49784Y63398
X9754Y62992
X38202Y50597
X28245Y49581
X22555Y49581
X40030Y20117
X59741Y27026
X55474Y27229
X35560Y14021
X34341Y26822
X21336Y28042
X27635Y18898
X13818Y32512
X22352Y15850
X13614Y24181
X9550Y19101
X70104Y6096
X20117Y5893
X29870Y5690
X59944Y6096
X53848Y6299
X40640Y6096
X60350Y13005
X56083Y13005
X22962Y11379
M30